M48
;DRILL file {Pcbnew (2013-07-07 BZR 4022)-stable} date 2018/2/23 23:02:53
;FORMAT={-:-/ absolute / metric / decimal}
FMAT,2
METRIC,TZ
T1C0.200
T2C0.300
T3C0.500
T4C0.800
T5C0.813
T6C0.899
T7C1.000
T8C1.016
T9C1.500
%
G90
G05
M71
T1
X56.8Y-91.3
X57.3Y-86.5
X59.2Y-81.4
X59.7Y-82.2
X61.4Y-65.4
X61.7Y-91.7
X62.Y-120.4
X62.1Y-82.2
X62.8Y-87.2
X63.Y-96.
X63.Y-119.1
X63.2Y-77.325
X63.2Y-86.7
X63.25Y-77.275
X63.4Y-92.3
X63.9Y-86.9
X63.9Y-99.
X64.3Y-77.3
X64.4Y-79.5
X64.6Y-86.8
X64.6Y-92.3
X64.8Y-98.8
X64.9Y-77.7
X64.9Y-90.1
X65.2Y-79.3
X65.5Y-86.7
X65.6Y-77.6
X66.Y-79.7
X66.3Y-98.9
X66.575Y-82.35
X66.6Y-77.7
X66.7Y-71.45
X66.8Y-66.8
X67.Y-96.1
X67.2Y-89.4
X67.8Y-99.
X67.9Y-92.925
X68.34Y-65.7
X68.5Y-89.
X69.1Y-94.625
X69.2Y-117.6
X70.1Y-120.2
X70.4Y-96.7
X70.45Y-118.825
X71.1Y-86.4
X71.6Y-101.4
X71.7Y-86.725
X71.8Y-106.6
X71.8Y-108.
X71.8Y-110.2
X71.9Y-96.7
X72.Y-79.675
X72.125Y-90.025
X72.2Y-93.6
X72.3Y-94.5
X72.39Y-92.519
X72.5Y-95.9
X72.898Y-78.676
X72.898Y-98.187
X73.3Y-70.6
X73.3Y-72.425
X73.9Y-86.6
X74.168Y-74.104
X74.8Y-83.5
X74.8Y-84.5
X74.8Y-97.9
X75.Y-70.9
X75.Y-85.2
X75.2Y-67.4
X75.2Y-71.9
X75.6Y-66.8
X75.7Y-85.2
X76.1Y-98.
X76.2Y-66.4
X76.375Y-75.925
X76.4Y-85.3
X76.6Y-87.8
X76.8Y-89.
X76.8Y-99.1
X76.9Y-96.3
X76.95Y-77.65
X77.Y-84.6
X77.2Y-83.9
X77.6Y-86.2
X77.6Y-95.7
X77.75Y-77.925
X78.6Y-85.4
X78.737Y-88.237
X78.74Y-78.041
X79.3Y-70.975
X79.35Y-96.4
X79.45Y-78.475
X79.525Y-72.2
X79.688Y-88.287
X79.85Y-104.225
X80.1Y-71.7
X80.1Y-79.
X80.7Y-74.4
X80.7Y-77.4
X80.9Y-78.95
X80.925Y-76.325
X80.925Y-84.9
X80.925Y-89.9
X81.15Y-95.175
X81.2Y-69.2
X81.275Y-96.3
X81.28Y-71.945
X81.6Y-73.25
X81.6Y-103.775
X81.675Y-75.325
X82.Y-90.65
X82.1Y-79.775
X82.225Y-86.975
X82.4Y-104.15
X82.6Y-117.5
X82.65Y-88.35
X82.675Y-84.225
X83.25Y-81.85
X83.325Y-96.375
X83.6Y-85.625
X83.625Y-91.575
X84.05Y-92.175
X84.05Y-95.8
X84.325Y-79.475
X84.6Y-96.5
X84.625Y-75.75
X85.325Y-96.
X85.4Y-81.975
X85.775Y-72.5
X85.85Y-69.775
X85.9Y-97.3
X86.2Y-96.55
X86.4Y-84.4
X87.Y-98.9
X87.55Y-97.45
X87.575Y-97.475
X87.6Y-86.3
X87.775Y-99.2
X87.95Y-107.55
X88.2Y-86.2
X88.225Y-77.6
X88.4Y-92.6
X88.55Y-97.15
X89.1Y-82.762
X89.1Y-98.05
X89.125Y-76.775
X89.2Y-75.4
X89.2Y-92.4
X89.8Y-83.4
X90.Y-73.6
X90.Y-94.1
X90.4Y-95.4
X90.5Y-93.7
X90.8Y-75.4
X91.Y-73.4
X91.Y-90.3
X91.075Y-70.225
X91.2Y-74.6
X91.9Y-82.6
X92.725Y-77.525
X92.8Y-69.8
X92.8Y-81.
X92.9Y-87.7
X93.Y-95.8
X93.3Y-84.2
X93.4Y-88.5
X94.Y-68.2
X94.18Y-64.5
X94.6Y-79.35
X94.8Y-81.2
X95.2Y-72.
X95.43Y-64.5
X96.2Y-86.
X96.4Y-63.37
X96.8Y-104.8
X97.6Y-72.8
X97.8Y-108.2
X98.4Y-65.8
X98.5Y-64.1
X98.6Y-110.2
X98.8Y-67.
X99.Y-104.8
X99.1Y-71.075
X100.2Y-89.4
X100.4Y-88.
X100.4Y-106.8
X100.584Y-105.664
X101.8Y-79.
X102.Y-104.8
X102.2Y-118.4
X102.89Y-71.88
X103.Y-68.8
X103.2Y-87.8
X103.4Y-118.6
X103.6Y-79.1
X103.6Y-91.6
X104.Y-69.6
X104.394Y-98.806
X104.775Y-75.625
X105.Y-103.2
X105.2Y-66.4
X105.5Y-99.3
X105.8Y-63.6
X106.8Y-75.
X107.12Y-109.205
X107.8Y-64.
X108.Y-70.2
X108.Y-74.8
X109.Y-73.8
X109.8Y-65.6
X109.8Y-70.
X109.8Y-80.8
X111.2Y-71.8
X111.4Y-117.
X111.475Y-79.625
X111.6Y-70.
X111.6Y-76.4
X111.8Y-84.2
X112.2Y-117.6
X112.6Y-84.
X112.8Y-83.1
X112.8Y-103.6
X113.1Y-75.7
X113.2Y-77.2
X113.4Y-90.1
X113.6Y-71.2
X113.8Y-66.2
X113.8Y-80.9
X113.8Y-103.6
X114.2Y-84.9
T2
X67.3Y-83.3
X68.8Y-81.8
X68.9Y-77.4
X69.4Y-85.
X86.9Y-80.3
X87.2Y-69.
X101.33Y-74.32
T3
X55.5Y-87.6
X55.7Y-85.9
X56.7Y-89.9
X66.8Y-86.4
X69.275Y-86.75
X69.475Y-92.75
X83.2Y-111.4
X91.Y-86.8
X96.675Y-84.9
X99.8Y-80.6
X100.Y-64.
X108.1Y-95.6
X110.4Y-89.4
X111.2Y-98.4
X112.4Y-91.8
X112.4Y-111.2
X113.Y-99.9
X116.1Y-110.6
X116.23Y-100.801
X116.33Y-100.801
X116.5Y-96.8
T4
X70.5Y-103.5
X70.6Y-115.4
X92.2Y-102.
X104.2Y-101.4
T5
X55.737Y-73.95
X60.563Y-73.95
X63.05Y-67.08
X63.05Y-69.62
T6
X59.57Y-109.205
X59.57Y-116.19
X60.84Y-106.665
X60.84Y-113.65
X62.11Y-109.205
X62.11Y-116.19
X63.38Y-106.665
X63.38Y-113.65
X64.65Y-109.205
X64.65Y-116.19
X65.92Y-106.665
X65.92Y-113.65
X67.19Y-109.205
X67.19Y-116.19
X68.46Y-106.665
X68.46Y-113.65
X73.54Y-109.205
X73.54Y-116.19
X74.81Y-106.665
X74.81Y-113.65
X76.08Y-109.205
X76.08Y-116.19
X77.35Y-106.665
X77.35Y-113.65
X78.62Y-109.205
X78.62Y-116.19
X79.89Y-106.665
X79.89Y-113.65
X81.16Y-109.205
X81.16Y-116.19
X82.43Y-106.665
X82.43Y-113.65
X88.07Y-109.205
X88.07Y-116.19
X89.34Y-106.665
X89.34Y-113.65
X90.61Y-109.205
X90.61Y-116.19
X91.88Y-106.665
X91.88Y-113.65
X93.15Y-109.205
X93.15Y-116.19
X94.42Y-106.665
X94.42Y-113.65
X95.69Y-109.205
X95.69Y-116.19
X96.96Y-106.665
X96.96Y-113.65
X102.04Y-109.205
X102.04Y-116.19
X103.31Y-106.665
X103.31Y-113.65
X104.58Y-109.205
X104.58Y-116.19
X105.85Y-106.665
X105.85Y-113.65
X107.12Y-109.205
X107.12Y-116.19
X108.39Y-106.665
X108.39Y-113.65
X109.66Y-109.205
X109.66Y-116.19
X110.93Y-106.665
X110.93Y-113.65
T7
X117.6Y-108.6
X117.6Y-119.5
X117.6Y-124.1
X117.6Y-127.1
T8
X86.23Y-63.4
X88.77Y-63.4
X96.26Y-91.4
X96.26Y-94.1
X98.8Y-91.4
X98.8Y-94.1
X101.34Y-91.4
X101.34Y-94.1
T9
X55.5Y-127.
X114.5Y-127.
T0
M30
